<svg width="500" height="300" viewBox="0 0 500 300" xmlns="http://www.w3.org/2000/svg">
  <!-- 底座 -->
  <g transform="translate(250, 250)">
    <rect x="-120" y="-80" width="240" height="120" fill="#2A6CBF" rx="5" />
    <rect x="-125" y="-75" width="250" height="125" fill="#3A86E0" rx="5" />
    <rect x="-130" y="-70" width="260" height="130" fill="#4A96F0" rx="5" />
  </g>

  <!-- 人物 -->
  <g transform="translate(250, 150)">
    <circle cx="0" cy="-40" r="30" fill="#4A96F0" />
    <rect x="-10" y="-10" width="20" height="30" fill="#4A76E0" />
    <circle cx="-8" cy="-20" r="5" fill="#000" />
    <path d="M-5,-10 L5,-10 L0,-20 Z" fill="#4A76E0" />
    <path d="M-10,20 L-20,30 M10,20 L20,30" stroke="#000" stroke-width="2" />
  </g>

  <!-- 柱状图 -->
  <g transform="translate(180, 220)">
    <rect x="0" y="-20" width="8" height="20" fill="#E04A4A" />
    <rect x="10" y="-30" width="8" height="30" fill="#E08A4A" />
    <rect x="20" y="-40" width="8" height="40" fill="#4A96F0" />
    <rect x="30" y="-50" width="8" height="50" fill="#2A6CBF" />
  </g>

  <!-- 云形图标 -->
  <g transform="translate(150, 100)">
    <path d="M-20,0 C-30,-10 -30,-30 -20,-40 C-10,-30 10,-30 20,-40 C30,-30 30,-10 20,0 C10,10 -10,10 -20,0 Z" fill="#6A5ACD" />
  </g>

  <!-- 数据屏幕1 -->
  <g transform="translate(300, 120)">
    <rect x="0" y="0" width="40" height="30" fill="#87CEEB" rx="3" />
    <path d="M5,10 L15,5 L25,15 L35,10" stroke="#006400" stroke-width="2" fill="none" />
  </g>

  <!-- 数据屏幕2 -->
  <g transform="translate(220, 100)">
    <rect x="0" y="0" width="30" height="25" fill="#ADD8E6" rx="2" />
    <circle cx="10" cy="10" r="5" fill="#000" />
    <circle cx="20" cy="15" r="5" fill="#000" />
  </g>

  <!-- 数据屏幕3 -->
  <g transform="translate(280, 80)">
    <rect x="0" y="0" width="30" height="25" fill="#B0E0E6" rx="2" />
    <circle cx="10" cy="15" r="5" fill="#000" />
    <circle cx="20" cy="10" r="5" fill="#000" />
  </g>

  <!-- 服务器图标 -->
  <g transform="translate(320, 200)">
    <rect x="0" y="0" width="20" height="15" fill="#4A4A4A" />
    <rect x="5" y="15" width="10" height="5" fill="#6A6A6A" />
    <circle cx="10" cy="5" r="2" fill="#00FF00" />
  </g>

  <!-- 球体和立方体 -->
  <g transform="translate(200, 230)">
    <circle cx="0" cy="0" r="10" fill="#4A96F0" />
    <circle cx="15" cy="5" r="8" fill="#3A86E0" />
    <rect x="30" y="0" width="8" height="8" fill="#2A6CBF" />
  </g>
</svg>
